<svg width="131" height="24" viewBox="0 0 131 24" fill="none" xmlns="http://www.w3.org/2000/svg">
<path d="M53.3471 12.8882C52.2292 12.8882 51.0078 12.8375 50.6789 12.2257C50.4443 11.791 50.5409 11.4276 50.9641 11.147C52.0452 10.4339 56.0244 10.5581 57.0319 11.1792C57.1285 11.2367 57.3102 11.4483 57.3562 11.5909C57.4804 11.9704 57.7219 12.1153 58.1267 12.1153H59.9507C60.229 12.1153 60.4729 12.0624 60.6224 11.8922C60.811 11.676 60.7167 11.354 60.6546 11.0642C60.4775 10.2591 60.0795 9.12977 58.8697 8.37994C56.8226 7.11948 51.2908 6.91937 49.0343 8.40984C47.1804 9.6381 46.61 11.8393 47.6473 13.7599C48.963 16.2026 51.9233 16.2026 53.3471 16.2026C55.9646 16.2026 57.3838 16.4901 57.6713 17.0076C57.9059 17.4355 57.9565 18.0588 57.2941 18.4498C56.0175 19.2043 51.8267 19.1882 50.7548 18.2152C50.4466 17.9346 50.2304 17.5873 50.1154 17.1779C50.0096 16.8006 49.6462 16.5361 49.2344 16.5361H47.6151C47.2747 16.5361 46.9642 16.7132 46.8009 17.0146C46.6951 17.2101 46.679 17.4401 46.725 17.6586C46.8975 18.482 47.3322 19.6459 48.4156 20.6326C49.5611 21.6746 51.7531 22.2933 54.2809 22.2933C54.2855 22.2933 54.2924 22.2933 54.297 22.2933C56.2429 22.2933 57.9841 21.9253 59.0744 21.2813C61.4435 19.8874 61.5033 17.1365 60.788 15.6276C59.4861 12.8882 55.6426 12.8882 53.3471 12.8882Z" fill="#06B6F2"/>
<path d="M109.114 7.37476H109.091C106.008 7.38166 102.324 8.68582 102.204 14.8363C102.158 17.1962 102.768 19.0616 104.012 20.3819C105.224 21.6653 106.933 22.3209 109.091 22.3255H109.114C111.271 22.3209 112.978 21.6653 114.192 20.3819C115.439 19.0616 116.046 17.1962 116 14.8363C115.878 8.68582 112.194 7.38166 109.114 7.37476ZM111.761 17.8771C111.195 18.4751 110.303 18.781 109.102 18.7833C107.902 18.781 107.009 18.4751 106.441 17.8771C105.847 17.2468 105.558 16.2463 105.585 14.8961C105.65 11.584 106.979 10.9169 109.102 10.9146C111.223 10.9192 112.552 11.5863 112.617 14.8961C112.642 16.2463 112.355 17.2468 111.761 17.8771Z" fill="#06B6F2"/>
<path d="M100.104 10.0958H98.0821C97.7003 10.0958 97.3921 10.404 97.3921 10.7859V21.5964C97.3921 21.9782 97.7003 22.2864 98.0821 22.2864H100.104C100.483 22.2864 100.794 21.9759 100.794 21.5964V10.7859C100.794 10.404 100.486 10.0958 100.104 10.0958Z" fill="#06B6F2"/>
<path d="M100.104 5.10229H98.0821C97.7003 5.10229 97.3921 5.41051 97.3921 5.79233V7.76582C97.3921 8.14764 97.7003 8.45586 98.0821 8.45586H100.104C100.483 8.45586 100.794 8.14764 100.794 7.76582V5.79233C100.794 5.41051 100.486 5.10229 100.104 5.10229Z" fill="#06B6F2"/>
<path d="M124.497 7.41156C123.103 7.41156 121.873 7.69907 120.766 8.1867V7.88998C120.766 7.50817 120.458 7.19995 120.076 7.19995H118.103C117.721 7.19995 117.413 7.50817 117.413 7.88998V21.6354C117.413 22.0173 117.721 22.3255 118.103 22.3255H120.076C120.458 22.3255 120.766 22.015 120.766 21.6354V11.6691C121.804 11.2182 122.917 10.9261 123.915 10.9261C126.827 10.9261 127.365 12.7179 127.365 15.8277V21.6538C127.365 22.0265 127.673 22.3255 128.055 22.3255H130.089C130.468 22.3255 130.776 22.0265 130.779 21.6561L130.815 14.2084C130.776 8.80543 127.74 7.41156 124.497 7.41156Z" fill="#06B6F2"/>
<path d="M43.2059 13.0055C43.9764 12.1521 44.3008 11.2206 44.3008 10.1717C44.3008 7.37021 42.0213 5.0885 39.2175 5.0885H31.6155V5.0908H31.6109C31.2291 5.0908 30.9209 5.39902 30.9209 5.78084V21.5826C30.9209 21.9644 31.2291 22.2726 31.6109 22.2726H31.6661H34.3228H40.5515C43.3531 22.2726 45.6348 19.9932 45.6348 17.1894C45.6371 15.4574 44.6688 13.7622 43.2059 13.0055ZM41.1496 10.1717C41.1496 11.2367 40.2824 12.1038 39.2175 12.1038H34.3228V8.23965H39.2175C40.2824 8.23965 41.1496 9.10679 41.1496 10.1717ZM40.5515 19.1215H34.3228V15.2573H40.5515C41.6165 15.2573 42.4837 16.1244 42.4837 17.1894C42.4837 18.2543 41.6165 19.1215 40.5515 19.1215Z" fill="#06B6F2"/>
<path d="M70.4138 8.06022H65.9653V5.6152C65.9653 5.23339 65.6571 4.92517 65.2753 4.92517H63.2535C62.8717 4.92517 62.5635 5.23339 62.5635 5.6152V17.3481C62.5635 19.8 64.3507 21.6401 67.2258 22.1507C67.7088 22.2358 68.231 22.2703 68.7508 22.2703C69.358 22.2703 69.9607 22.2243 70.4943 22.1645C70.8439 22.1254 71.1039 21.8287 71.1039 21.4791V19.6252C71.1039 19.2088 70.7381 18.8891 70.3241 18.942C69.4386 19.0524 68.4725 19.1007 67.7871 18.9788C67.1844 18.873 65.9653 18.4981 65.9653 17.3481V11.4621H70.4138C70.7956 11.4621 71.1039 11.1516 71.1039 10.772V8.75025C71.1039 8.36843 70.7956 8.06022 70.4138 8.06022Z" fill="#06B6F2"/>
<path d="M95.2942 8.06483H90.8457V5.63132C90.8457 5.2495 90.5375 4.94128 90.1557 4.94128H88.1339C87.7521 4.94128 87.4438 5.2495 87.4438 5.63132V17.3642C87.4438 19.8161 89.2311 21.6562 92.1062 22.1668C92.5892 22.2519 93.1114 22.2864 93.6312 22.2864C94.2384 22.2864 94.8411 22.2404 95.3747 22.1806C95.7243 22.1415 95.9842 21.8448 95.9842 21.4952V19.6413C95.9842 19.225 95.6185 18.9052 95.2045 18.9582C94.3189 19.0686 93.3529 19.1169 92.6675 18.995C92.0648 18.8891 90.8457 18.5142 90.8457 17.3642V11.4782H95.2942C95.676 11.4782 95.9842 11.1677 95.9842 10.7882V8.75487C95.9842 8.37305 95.676 8.06483 95.2942 8.06483Z" fill="#06B6F2"/>
<path d="M84.2725 8.05099H82.2208C82.0299 8.05099 81.8574 8.12229 81.7332 8.235C80.6084 7.58867 79.318 7.37706 78.1243 7.37476H78.1013C75.1111 7.38166 71.5367 8.68582 71.4217 14.8363C71.378 17.1962 71.9691 19.0616 73.1744 20.3819C74.3498 21.6653 76.0082 22.3209 78.1013 22.3255H78.1243C79.4307 22.3232 80.567 22.0656 81.5239 21.5618V21.663C81.5239 22.0219 81.8367 22.3117 82.2231 22.3117H84.2748C84.6612 22.3117 84.9741 22.0196 84.9741 21.663V8.69962C84.9718 8.3408 84.659 8.05099 84.2725 8.05099ZM80.6889 17.8771C80.1415 18.4751 79.2744 18.781 78.1105 18.7833C76.9466 18.781 76.0795 18.4751 75.5297 17.8771C74.9524 17.2468 74.6718 16.2463 74.6994 14.8961C74.7638 11.584 76.0519 10.9169 78.1105 10.9146C80.1668 10.9192 81.4549 11.5863 81.5193 14.8961C81.5446 16.2463 81.264 17.2468 80.6889 17.8771Z" fill="#06B6F2"/>
<path d="M8.28053 10.1211C7.26388 10.1211 6.44043 10.9445 6.44043 11.9612V15.4113C6.44043 16.428 7.26388 17.2514 8.28053 17.2514C9.29719 17.2514 10.1206 16.428 10.1206 15.4113V11.9612C10.1206 10.9445 9.29489 10.1211 8.28053 10.1211Z" fill="#06B6F2"/>
<path d="M17.4812 10.1211C16.4646 10.1211 15.6411 10.9445 15.6411 11.9612V15.4113C15.6411 16.428 16.4646 17.2514 17.4812 17.2514C18.4979 17.2514 19.3213 16.428 19.3213 15.4113V11.9612C19.3213 10.9445 18.4956 10.1211 17.4812 10.1211Z" fill="#06B6F2"/>
<path d="M24.8874 6.12125C24.4205 5.24721 23.7396 4.56638 22.8656 4.09715C21.9869 3.62793 21.1221 3.38872 18.8289 3.38872H18.5528L19.5051 2.27777C20.0019 1.70044 19.9329 0.824096 19.3556 0.329573C18.7874 -0.158051 17.9203 -0.0982456 17.4074 0.479082L14.9117 3.39102H10.714L8.20455 0.462979C7.70772 -0.0982473 6.84056 -0.158048 6.27243 0.331875C5.6951 0.828699 5.62842 1.70274 6.12295 2.28007L7.07517 3.39102H6.76696C4.50824 3.39102 3.625 3.63023 2.78085 4.07415L2.73025 4.10175C1.8562 4.56868 1.17536 5.24951 0.70843 6.12585C0.239203 7.00449 0 7.87163 0 10.1648V17.2952C0.00460026 19.5079 0.243805 20.3796 0.68083 21.2169L0.70843 21.2675C1.17536 22.1415 1.8562 22.8223 2.73025 23.2916L2.80845 23.333C3.6434 23.7654 4.51974 24 6.76696 24H18.8932C21.1037 23.9954 21.9754 23.7562 22.8127 23.3192L22.8633 23.2916C23.7373 22.8246 24.4182 22.1438 24.8851 21.2675C25.3543 20.3888 25.5935 19.5217 25.5935 17.2285V10.1648C25.5935 7.90384 25.3543 7.02059 24.9127 6.17645L24.8874 6.12125ZM22.7736 17.2561C22.7736 18.1347 22.7322 18.7742 22.6517 19.2112L22.6471 19.2388C22.5942 19.5102 22.5344 19.6781 22.3987 19.9334C22.1963 20.3129 21.9133 20.5958 21.5338 20.7982C21.2808 20.934 21.1129 20.9938 20.8415 21.0467C20.3999 21.1318 19.7397 21.1732 18.8289 21.1732H6.73706C5.85841 21.1732 5.21898 21.1318 4.78425 21.0513L4.75665 21.0467C4.48524 20.9938 4.31733 20.934 4.06431 20.7982C3.68479 20.5958 3.40187 20.3129 3.19946 19.9334C3.06375 19.6804 3.00396 19.5125 2.95106 19.2388C2.87055 18.8202 2.82914 18.2129 2.82454 17.3803V10.128C2.82454 9.2494 2.86595 8.60997 2.94645 8.17295L2.95106 8.14535C3.00396 7.87393 3.06375 7.70373 3.19946 7.45071C3.40187 7.0712 3.68479 6.78828 4.06431 6.58587C4.31733 6.45017 4.48524 6.39036 4.75665 6.33746C5.17298 6.25696 5.78023 6.21555 6.61287 6.21095H6.73706H18.8611C19.7397 6.21095 20.3792 6.25236 20.8139 6.33286L20.8415 6.33746C21.1129 6.39036 21.2808 6.45017 21.5338 6.58587C21.9133 6.78828 22.1963 7.0712 22.3987 7.45071C22.5344 7.70373 22.5942 7.87163 22.6471 8.14535C22.7322 8.58927 22.7736 9.2471 22.7736 10.1602V17.2561Z" fill="#06B6F2"/>
</svg>
